<svg xmlns="http://www.w3.org/2000/svg" width="1200" height="675" viewBox="0 0 1200 675">
<defs>
  <linearGradient id="bg" x1="0" y1="0" x2="1" y2="1"><stop stop-color="#0b1018"/><stop offset="1" stop-color="#161b25"/></linearGradient>
  <linearGradient id="g" x1="0" y1="0" x2="1" y2="1"><stop stop-color="#7e93ff"/><stop offset="1" stop-color="#9a7cff"/></linearGradient>
  <filter id="blur"><feGaussianBlur stdDeviation="38"/></filter>
  <pattern id="grid" width="44" height="44" patternUnits="userSpaceOnUse"><path d="M44 0H0V44" fill="none" stroke="#ffffff" stroke-opacity=".035" stroke-width="1"/></pattern>
</defs>
<rect width="1200" height="675" fill="url(#bg)"/>
<rect width="1200" height="675" fill="url(#grid)"/>
<circle cx="1010" cy="108" r="245" fill="#7e93ff" opacity=".12" filter="url(#blur)"/>
<circle cx="900" cy="585" r="220" fill="#9a7cff" opacity=".10" filter="url(#blur)"/>
<circle cx="779" cy="353" r="182" fill="none" stroke="url(#g)" stroke-width="1.4" opacity="0.16"/><circle cx="776" cy="251" r="233" fill="none" stroke="url(#g)" stroke-width="1.4" opacity="0.21"/><circle cx="1080" cy="168" r="137" fill="none" stroke="url(#g)" stroke-width="1.4" opacity="0.26"/>
<path d="M690 555 C805 455 918 488 1132 344" fill="none" stroke="url(#g)" stroke-width="2" opacity=".48"/>
<path d="M715 590 C845 495 958 522 1168 406" fill="none" stroke="#dfe7f2" stroke-width="1" opacity=".14"/>
<rect x="72" y="64" width="126" height="34" rx="6" fill="url(#g)"/>
<text x="135" y="87" text-anchor="middle" fill="#0c1118" font-size="16" font-weight="900" font-family="Arial,Helvetica,sans-serif">EDGEAI</text>
<text x="72" y="137" fill="#7e93ff" font-size="15" font-weight="800" letter-spacing="2.5" font-family="Arial,Helvetica,sans-serif">MODELS</text>
<text x="72" y="222" fill="#f4f7fb" font-size="48" font-weight="800" font-family="Arial,Helvetica,sans-serif">MiniMax Announces M3 Frontier</text><text x="72" y="280" fill="#f4f7fb" font-size="48" font-weight="800" font-family="Arial,Helvetica,sans-serif">Model with 1M Context, H3</text><text x="72" y="338" fill="#f4f7fb" font-size="48" font-weight="800" font-family="Arial,Helvetica,sans-serif">Video, and Open-Weights Mus…</text>
<line x1="72" y1="540" x2="558" y2="540" stroke="#ffffff" stroke-opacity=".14"/>
<text x="72" y="579" fill="#aab5c3" font-size="17" font-family="Arial,Helvetica,sans-serif">SOURCE / MINIMAX RESEARCH</text>
<text x="72" y="616" fill="#7d8998" font-size="14" letter-spacing="1.5" font-family="Arial,Helvetica,sans-serif">BLEEDING-EDGE AI WITHOUT THE NOISE</text>
<text x="1112" y="622" text-anchor="end" fill="#748091" font-size="12" letter-spacing="1.3" font-family="Arial,Helvetica,sans-serif">SIGNAL / VERIFY / REPORT</text>
</svg>